<svg width="512" height="512" viewBox="0 0 512 512" xmlns="http://www.w3.org/2000/svg">
  <defs>
    <radialGradient id="bg" cx="50%" cy="50%" r="50%">
      <stop offset="0%" stop-color="#ec4899"/>
      <stop offset="100%" stop-color="#7c3aed"/>
    </radialGradient>
  </defs>
  <circle cx="256" cy="256" r="248" fill="url(#bg)"/>

  <!-- Petals -->
  <ellipse cx="256" cy="112" rx="36" ry="80" fill="#f97316" fill-opacity="0.85" transform="rotate(0 256 256)"/>
  <ellipse cx="256" cy="112" rx="36" ry="80" fill="#f97316" fill-opacity="0.85" transform="rotate(60 256 256)"/>
  <ellipse cx="256" cy="112" rx="36" ry="80" fill="#f97316" fill-opacity="0.85" transform="rotate(120 256 256)"/>
  <ellipse cx="256" cy="112" rx="36" ry="80" fill="#f97316" fill-opacity="0.85" transform="rotate(180 256 256)"/>
  <ellipse cx="256" cy="112" rx="36" ry="80" fill="#f97316" fill-opacity="0.85" transform="rotate(240 256 256)"/>
  <ellipse cx="256" cy="112" rx="36" ry="80" fill="#f97316" fill-opacity="0.85" transform="rotate(300 256 256)"/>

  <!-- Center circle -->
  <circle cx="256" cy="256" r="80" fill="#1e0a2e" fill-opacity="0.5"/>

  <!-- Heart -->
  <path d="M256 310 C256 310 200 270 200 230 C200 210 220 200 256 230 C292 200 312 210 312 230 C312 270 256 310 256 310Z"
        fill="#ec4899"/>

  <!-- Sparkles -->
  <text x="80" y="120" font-size="48" fill="white" fill-opacity="0.9">✨</text>
  <text x="380" y="90" font-size="36" fill="white" fill-opacity="0.8">✨</text>
  <text x="60" y="390" font-size="32" fill="white" fill-opacity="0.7">✨</text>
</svg>
